<svg width="32" height="33" viewBox="0 0 32 33" fill="none" xmlns="http://www.w3.org/2000/svg">
<path d="M30.9231 4.06859C29.4776 2.29207 27.5364 1.3424 25.2743 1.03905C25.1871 0.953023 25.0887 0.932649 24.9777 0.987547C24.7865 0.961513 24.5946 0.934913 24.4033 0.908313C24.3427 1.01754 24.2822 1.12734 24.2216 1.23657C24.1611 1.34579 24.1005 1.45502 24.0383 1.56312C24.1 1.45446 24.1611 1.34579 24.2216 1.23657C24.2822 1.12734 24.3422 1.01811 24.4033 0.908313C24.3388 0.877752 24.2765 0.82908 24.2092 0.819458C20.1841 0.251808 16.1466 -0.150019 12.0752 0.0537245C10.2833 0.143145 8.52267 0.453287 6.82481 1.05546C1.66219 2.88519 -0.663874 6.78573 0.163549 12.1827C0.448224 14.0378 1.09511 15.7878 1.77934 17.5111C2.83258 20.1626 3.39288 22.8616 3.07481 25.7169C3.0267 26.1481 3.03746 26.5856 3.01425 27.0197C3.00407 27.2138 2.95426 27.4345 3.12631 27.5636C3.926 28.1646 4.73814 28.7498 5.63631 29.4069C5.66574 29.0628 5.68951 28.8771 5.69687 28.6915C5.78346 26.5912 5.92212 24.491 5.93061 22.3902C5.93513 21.2453 6.33243 20.329 7.03818 19.4919C8.53003 17.7216 10.22 16.1647 12.0401 14.7362C14.0667 13.1453 16.15 11.6416 18.381 10.3484C18.4891 10.2856 18.6668 10.2607 18.6142 10.0224C15.9151 9.76208 13.46 10.4656 11.177 11.8878C9.54308 12.9054 8.17461 14.2354 6.79312 15.5535C6.66578 15.6746 6.5441 15.9185 6.32904 15.8138C6.1202 15.7119 6.2283 15.4663 6.23396 15.2875C6.29225 13.5245 6.36186 11.7622 6.42468 9.99921C6.44053 9.5555 6.56447 9.14462 6.79368 8.76996C8.0484 6.71838 9.86285 5.34821 12.1006 4.55022C15.4013 3.3736 18.6396 3.51396 21.7728 5.16145C24.8878 7.49034 25.9484 10.0598 24.9568 13.4278C24.0473 16.5173 22.5096 19.1778 19.1756 20.2548C18.4874 20.4773 17.7811 20.6431 17.0799 20.8242C16.1704 21.0591 15.2439 21.2317 14.3633 21.5746C12.9914 22.1095 12.1414 23.0603 11.9257 24.5487C11.8358 25.169 11.6886 25.7814 11.5766 26.3988C11.2709 28.0854 10.9495 29.7696 10.7746 31.4766C10.7537 31.682 10.5731 32.0301 10.937 32.0799C12.357 32.2734 13.7911 32.3923 15.1313 31.7295C17.3906 30.6123 19.1903 28.8839 20.9674 27.1544C24.9925 23.2374 27.7526 18.4523 30.2405 13.4826C30.987 11.9919 31.3175 10.3982 31.7482 8.81184C32.2287 7.04211 32.0572 5.46423 30.9225 4.07029L30.9231 4.06859Z" fill="#30947F"/>
</svg>
