<svg width="415" height="400" viewBox="0 0 415 400" fill="none" xmlns="http://www.w3.org/2000/svg">
<path d="M371.073 84.2517V84.1976C371.07 84.2066 371.066 84.2156 371.063 84.2246C371.061 84.2156 371.059 84.2066 371.057 84.1976V84.2517C370.349 86.8205 368.711 88.6587 366.145 89.7638C368.711 90.8689 370.349 92.7071 371.057 95.2759V95.3301C371.059 95.3211 371.061 95.312 371.063 95.303C371.066 95.312 371.07 95.3211 371.073 95.3301V95.2759C371.781 92.7071 373.418 90.8689 375.985 89.7638C373.418 88.6587 371.781 86.8205 371.073 84.2517Z" fill="#535A63"/>
<path d="M272.323 16.7552V16.701C272.32 16.7101 272.318 16.7191 272.316 16.7281C272.313 16.7191 272.311 16.7101 272.307 16.701V16.7552C271.599 19.3241 269.961 21.1622 267.395 22.2673C269.961 23.3725 271.599 25.2106 272.307 27.7795V27.8336C272.311 27.8245 272.313 27.8155 272.316 27.8065C272.318 27.8155 272.32 27.8245 272.323 27.8336V27.7795C273.031 25.2106 274.668 23.3725 277.235 22.2673C274.668 21.1622 273.031 19.3241 272.323 16.7552Z" fill="#535A63"/>
<path d="M122.377 253.793V253.738C122.375 253.747 122.37 253.756 122.368 253.765C122.366 253.756 122.364 253.747 122.361 253.738V253.793C121.653 256.361 120.016 258.2 117.449 259.305C120.016 260.41 121.653 262.248 122.361 264.817V264.871C122.364 264.862 122.366 264.853 122.368 264.844C122.37 264.853 122.375 264.862 122.377 264.871V264.817C123.085 262.248 124.723 260.41 127.289 259.305C124.723 258.2 123.085 256.361 122.377 253.793Z" fill="#535A63"/>
<path d="M41.2207 181.041V180.987C41.2182 180.996 41.2155 181.005 41.2131 181.014C41.2106 181.005 41.2076 180.996 41.2052 180.987V181.041C40.4965 183.61 38.8594 185.448 36.293 186.553C38.8594 187.658 40.4965 189.496 41.2052 192.065V192.119C41.2076 192.11 41.2106 192.101 41.2131 192.092C41.2155 192.101 41.2182 192.11 41.2207 192.119V192.065C41.9294 189.496 43.5665 187.658 46.1329 186.553C43.5665 185.448 41.9294 183.61 41.2207 181.041Z" fill="#535A63"/>
<path d="M41.2305 266.932V266.824C41.2256 266.842 41.2197 266.86 41.215 266.878C41.21 266.86 41.2041 266.842 41.1992 266.824V266.932C39.7821 272.072 36.5078 275.746 31.375 277.957C36.5078 280.169 39.7821 283.843 41.1992 288.983V289.091C41.2041 289.073 41.21 289.055 41.215 289.037C41.2197 289.055 41.2256 289.073 41.2305 289.091V288.983C42.6476 283.843 45.9219 280.169 51.0547 277.957C45.9219 275.746 42.6476 272.072 41.2305 266.932Z" fill="#535A63"/>
<path d="M355.627 0.108242V-3.43323e-05C355.623 0.0180092 355.618 0.0360603 355.611 0.0541039C355.607 0.0360603 355.602 0.0180092 355.598 -3.43323e-05V0.108242C354.179 5.24823 350.904 8.92221 345.773 11.1325C350.904 13.3427 354.179 17.019 355.598 22.1568V22.2673C355.602 22.2492 355.607 22.2312 355.611 22.2109C355.618 22.2312 355.623 22.2492 355.627 22.2673V22.1568C357.046 17.019 360.321 13.3427 365.452 11.1325C360.321 8.92221 357.046 5.24823 355.627 0.108242Z" fill="#535A63"/>
<path d="M414.199 399.248C359.457 349.91 286.973 319.877 207.476 319.877C127.979 319.877 55.4961 349.91 0.753906 399.248H414.199Z" fill="white"/>
<path d="M414.197 399.999C414.016 399.999 413.836 399.936 413.694 399.805C400.029 387.491 385.188 376.343 369.586 366.669C353.814 356.895 337.077 348.514 319.843 341.761C284.06 327.737 246.253 320.628 207.474 320.628C168.695 320.628 130.888 327.737 95.1045 341.761C77.8703 348.514 61.135 356.895 45.3632 366.669C29.759 376.343 14.9186 387.491 1.25512 399.805C0.946583 400.085 0.471149 400.06 0.193287 399.751C-0.0845749 399.442 -0.059987 398.966 0.248548 398.689C13.9784 386.314 28.8906 375.111 44.5711 365.393C60.4201 355.568 77.237 347.147 94.5553 340.36C130.516 326.269 168.508 319.124 207.474 319.124C246.44 319.124 284.432 326.269 320.394 340.36C337.71 347.147 354.529 355.568 370.377 365.393C386.057 375.111 400.969 386.314 414.7 398.689C415.009 398.966 415.034 399.442 414.754 399.751C414.605 399.916 414.402 399.999 414.197 399.999Z" fill="#535A63"/>
<path d="M31.0195 375.208V362.61C31.0195 362.61 47.7833 344.325 67.8908 333.053C102.414 313.7 120.13 316.03 120.13 316.03L144.696 326.262C144.696 326.262 128.448 349.143 95.6143 365.747C71.6629 377.861 51.4135 382.486 51.4135 382.486L31.0195 375.208Z" fill="white"/>
<path d="M51.4104 383.237C51.0676 383.237 50.7579 383.003 50.6783 382.653C50.5859 382.249 50.8391 381.846 51.2437 381.753C51.4454 381.708 71.6876 377.003 95.2738 365.077C112.151 356.54 124.533 346.312 131.946 339.235C138.27 333.197 142.138 328.38 143.514 326.585L119.939 316.765C119.266 316.699 114.877 316.375 106.988 318.046C92.6612 321.077 78.0177 328.238 68.2563 333.709C49.6422 344.145 33.713 360.83 31.7693 362.905V375.208C31.7693 375.623 31.4328 375.959 31.0176 375.959C30.6021 375.959 30.2656 375.623 30.2656 375.208V362.61C30.2656 362.42 30.3362 362.24 30.4632 362.1C30.6317 361.917 47.5395 343.599 67.521 332.399C77.4106 326.853 92.253 319.604 106.801 316.548C115.57 314.706 120.04 315.26 120.227 315.285C120.293 315.294 120.356 315.31 120.417 315.337L144.982 325.567C145.192 325.655 145.352 325.836 145.415 326.055C145.478 326.273 145.438 326.51 145.305 326.697C145.264 326.754 141.107 332.566 132.984 340.322C125.496 347.469 112.994 357.799 95.9527 366.419C72.1928 378.433 51.7821 383.172 51.5787 383.219C51.5225 383.233 51.4661 383.237 51.4104 383.237Z" fill="#535A63"/>
<path d="M41.2132 363.622C40.9126 363.622 40.6288 363.44 40.5127 363.144C40.3616 362.759 40.5526 362.321 40.939 362.17C40.989 362.15 46.2231 360.081 71.2374 348.532C96.1352 337.036 105.687 326.639 105.779 326.535C106.059 326.226 106.532 326.201 106.841 326.481C107.15 326.758 107.175 327.232 106.898 327.541C106.799 327.649 104.428 330.261 98.9047 334.339C93.8365 338.08 85.0306 343.82 71.8676 349.896C46.7655 361.487 41.6902 363.492 41.4866 363.571C41.3968 363.607 41.3041 363.622 41.2132 363.622Z" fill="#535A63"/>
<path d="M263.461 324.95C263.461 324.95 281.872 319.877 284.504 319.877C292.269 319.877 304.554 321.289 332.644 334.316C360.735 347.345 377.49 361.645 377.49 361.645L387.509 377.743C387.509 377.743 360.676 381.185 323.894 366.936C287.111 352.686 268.79 337.217 268.79 337.217L263.461 324.95Z" fill="white"/>
<path d="M379.587 378.862C376.835 378.862 373.425 378.756 369.435 378.431C359.07 377.588 342.709 375.03 323.624 367.637C313.107 363.564 297.376 356.741 282.157 347.372C273.036 341.759 268.354 337.83 268.307 337.792C267.989 337.523 267.95 337.05 268.217 336.732C268.485 336.414 268.959 336.373 269.277 336.641C269.322 336.68 273.945 340.557 282.982 346.116C291.325 351.247 305.241 358.902 324.168 366.234C343.059 373.553 359.248 376.09 369.503 376.929C377.931 377.619 383.84 377.306 386.231 377.112L376.916 362.143C375.572 361.017 358.966 347.352 332.328 334.999C319.704 329.145 309.379 325.2 300.762 322.938C292.958 320.89 287.974 320.628 284.505 320.628C282.428 320.628 268.756 324.271 263.663 325.676C263.262 325.786 262.849 325.549 262.738 325.15C262.628 324.749 262.862 324.336 263.264 324.226C265.158 323.702 281.846 319.124 284.505 319.124C292.994 319.124 305.392 320.849 332.962 333.635C347.518 340.385 358.975 347.481 366.023 352.242C373.671 357.409 377.938 361.035 377.981 361.072C378.04 361.121 378.089 361.18 378.13 361.245L388.148 377.346C388.284 377.563 388.299 377.833 388.189 378.066C388.081 378.296 387.86 378.456 387.607 378.488C387.427 378.51 384.596 378.862 379.587 378.862Z" fill="#535A63"/>
<path d="M366.144 362.274C366.117 362.274 366.09 362.271 366.063 362.269C365.853 362.247 344.995 359.89 321.997 349.68C315.366 346.734 305.684 342.002 297.229 336.17C292.143 332.663 289.933 330.441 289.842 330.349C289.549 330.053 289.554 329.578 289.849 329.284C290.145 328.993 290.62 328.996 290.911 329.293C291.02 329.402 299.915 338.231 322.606 348.306C345.381 358.415 366.02 360.751 366.225 360.774C366.638 360.819 366.936 361.189 366.89 361.602C366.848 361.987 366.523 362.274 366.144 362.274Z" fill="#535A63"/>
<path d="M219.074 322.981C214.681 327.446 210.051 327.706 205.186 323.756L195.695 153.751L209.584 152.975L219.074 322.981Z" fill="#EBEBEB"/>
<path d="M205.921 323.378C210.29 326.79 214.347 326.564 218.308 322.687L208.876 153.769L196.489 154.459L205.921 323.378ZM211.887 327.288C209.537 327.288 207.126 326.298 204.715 324.341C204.55 324.208 204.451 324.009 204.437 323.799L194.947 153.792C194.935 153.593 195.003 153.399 195.136 153.25C195.269 153.101 195.456 153.011 195.655 153L209.543 152.224C209.958 152.202 210.312 152.52 210.337 152.935L219.828 322.94C219.839 323.15 219.76 323.357 219.614 323.508C217.291 325.867 214.848 327.135 212.351 327.275C212.196 327.284 212.042 327.288 211.887 327.288Z" fill="#535A63"/>
<path d="M283.583 163.929L282.979 130.412C282.911 115.784 272.219 91.417 257.144 89.4368L162.253 76.9826L150.539 166.241L227.269 176.314L245.427 178.698L263.585 181.079C274.427 182.502 283.64 174.453 283.583 163.929Z" fill="#535A63"/>
<path d="M151.382 165.594L263.681 180.335C268.69 180.994 273.661 179.521 277.315 176.296C280.845 173.183 282.854 168.679 282.829 163.939L282.227 130.426C282.193 122.954 279.435 113.425 275.032 105.547C269.971 96.4984 263.584 91.0404 257.044 90.1833L162.9 77.8262L151.382 165.594ZM266.027 181.993C265.183 181.993 264.335 181.936 263.485 181.826L150.439 166.988C150.028 166.934 149.738 166.555 149.792 166.144L161.508 76.8857C161.533 76.6872 161.637 76.5068 161.795 76.385C161.953 76.2655 162.153 76.2113 162.352 76.2362L257.24 88.6925C264.263 89.6127 271.047 95.3391 276.345 104.814C280.865 112.899 283.695 122.708 283.731 130.41L284.334 163.916C284.334 163.918 284.334 163.923 284.334 163.925C284.361 169.103 282.166 174.022 278.31 177.423C274.951 180.387 270.578 181.993 266.027 181.993Z" fill="#535A63"/>
<path d="M168.695 168.625L132.382 163.86C121.538 162.434 114.715 152.278 117.485 142.127L126.718 109.902C130.559 95.7857 147.179 75.0024 162.254 76.9826C177.331 78.9606 188.024 103.328 188.092 117.958L188.696 151.473C188.752 161.997 179.539 170.048 168.695 168.625Z" fill="#FFFBFB"/>
<path d="M168.794 167.881C173.803 168.537 178.772 167.064 182.428 163.842C185.958 160.727 187.969 156.221 187.942 151.478L187.34 117.972C187.304 110.498 184.548 100.969 180.145 93.0928C175.084 84.042 168.697 78.5863 162.157 77.727C155.616 76.8699 148.036 80.4921 140.812 87.9303C134.526 94.4032 129.404 102.899 127.444 110.098L118.208 142.334C116.961 146.901 117.742 151.773 120.349 155.693C123.048 159.75 127.469 162.455 132.478 163.113L168.794 167.881ZM171.14 169.536C170.296 169.536 169.448 169.482 168.598 169.372L132.282 164.604C126.842 163.889 122.036 160.946 119.097 156.525C116.248 152.244 115.398 146.924 116.76 141.928L125.996 109.695C128.015 102.272 133.281 93.5281 139.734 86.8838C147.296 79.096 155.327 75.316 162.353 76.2362C169.376 77.1586 176.16 82.885 181.456 92.3598C185.978 100.445 188.808 110.252 188.842 117.954L189.447 151.46C189.474 156.647 187.279 161.568 183.422 164.969C180.064 167.933 175.691 169.536 171.14 169.536Z" fill="#535A63"/>
<path d="M169.974 168.792L134.935 164.193C124.472 162.82 112.296 167.326 108.619 173.776L97.3357 194.339C92.2131 203.304 94.3818 218.726 108.928 220.634C123.473 222.544 147.658 210.582 156.553 202.111L177.327 182.796C183.732 176.704 180.437 170.166 169.974 168.792Z" fill="white"/>
<path d="M131.076 164.701C121.973 164.701 112.39 168.684 109.275 174.148L97.9962 194.699C95.0349 199.885 94.7665 206.822 97.3241 211.976C98.8668 215.088 102.151 218.988 109.027 219.89C115.439 220.731 124.51 218.843 134.567 214.574C143.262 210.882 151.487 205.897 156.036 201.567L176.817 182.245C179.338 179.846 180.335 177.308 179.618 175.105C178.705 172.299 175.064 170.22 169.877 169.539L134.838 164.94C133.606 164.777 132.346 164.701 131.076 164.701ZM112.176 221.586C111.014 221.588 109.898 221.52 108.831 221.381C101.298 220.39 97.6827 216.085 95.9754 212.645C93.206 207.061 93.4906 199.555 96.6836 193.964L107.963 173.416C109.841 170.12 113.75 167.258 118.976 165.346C124.17 163.445 129.871 162.77 135.034 163.449L170.073 168.048C175.935 168.817 179.934 171.219 181.048 174.638C181.955 177.423 180.818 180.513 177.848 183.339L157.067 202.661C148.442 210.875 126.883 221.586 112.176 221.586Z" fill="#535A63"/>
<path d="M233.389 76.7504L215.082 74.3461L216.746 61.6597L235.053 64.0617L233.389 76.7504Z" fill="white"/>
<path d="M215.924 73.6988L232.74 75.9068L234.208 64.7088L217.392 62.5031L215.924 73.6988ZM233.387 77.5013C233.356 77.5013 233.322 77.4991 233.288 77.4946L214.981 75.0926C214.785 75.0655 214.605 74.9618 214.483 74.8039C214.363 74.6461 214.309 74.4453 214.334 74.2491L216.001 61.5604C216.055 61.1499 216.432 60.8589 216.844 60.9131L235.149 63.3173C235.347 63.3421 235.528 63.4458 235.647 63.6037C235.769 63.7616 235.823 63.9624 235.796 64.1586L234.132 76.8473C234.082 77.2262 233.76 77.5013 233.387 77.5013Z" fill="#535A63"/>
<path d="M263.735 134.201L239.993 131.085C238.04 130.83 236.666 129.039 236.921 127.086L236.993 126.544C237.25 124.591 239.041 123.216 240.992 123.473L264.734 126.59C266.687 126.844 268.061 128.635 267.806 130.588L267.734 131.13C267.479 133.083 265.688 134.459 263.735 134.201Z" fill="white"/>
<path d="M263.83 133.457C265.37 133.658 266.784 132.571 266.987 131.033L267.057 130.491C267.157 129.745 266.958 129.007 266.5 128.41C266.042 127.814 265.379 127.433 264.635 127.334L240.893 124.217C239.355 124.016 237.938 125.103 237.735 126.641L237.665 127.183C237.568 127.929 237.765 128.667 238.222 129.264C238.68 129.86 239.343 130.241 240.09 130.34L263.83 133.457ZM264.2 134.984C264.013 134.984 263.825 134.973 263.636 134.948L239.894 131.831C238.75 131.68 237.733 131.094 237.032 130.18C236.328 129.264 236.023 128.13 236.175 126.987L236.244 126.447C236.556 124.086 238.728 122.417 241.089 122.726L264.829 125.843C265.973 125.994 266.99 126.581 267.693 127.494C268.395 128.41 268.699 129.544 268.548 130.688L268.478 131.227C268.194 133.399 266.333 134.984 264.2 134.984Z" fill="#535A63"/>
<path d="M261.546 150.878L237.806 147.761C235.853 147.504 234.477 145.713 234.734 143.76L234.804 143.218C235.061 141.267 236.852 139.892 238.805 140.149L262.545 143.263C264.498 143.521 265.874 145.311 265.617 147.264L265.547 147.806C265.29 149.757 263.499 151.132 261.546 150.878Z" fill="white"/>
<path d="M238.335 140.868C237.717 140.868 237.121 141.069 236.625 141.452C236.029 141.91 235.646 142.571 235.549 143.318L235.477 143.859C235.38 144.603 235.578 145.343 236.036 145.938C236.494 146.534 237.157 146.917 237.901 147.014L261.644 150.131C263.184 150.334 264.598 149.245 264.799 147.707L264.871 147.165C265.072 145.627 263.985 144.211 262.447 144.01L238.707 140.893C238.58 140.877 238.456 140.868 238.335 140.868ZM262.014 151.658C261.826 151.658 261.637 151.647 261.448 151.622L237.707 148.505C236.562 148.356 235.547 147.77 234.843 146.854C234.142 145.941 233.837 144.806 233.986 143.663L234.058 143.121C234.207 141.978 234.794 140.961 235.709 140.259C236.625 139.556 237.757 139.251 238.901 139.402L262.643 142.519C265.002 142.828 266.671 145 266.362 147.362L266.29 147.903C266.006 150.072 264.145 151.658 262.014 151.658Z" fill="#535A63"/>
<path d="M398.867 220.007C398.867 243.003 380.224 261.646 357.229 261.646C334.231 261.646 315.59 243.003 315.59 220.007C315.59 197.011 334.231 178.368 357.229 178.368C380.224 178.368 398.867 197.011 398.867 220.007Z" fill="#F1F1F1"/>
<path d="M365.433 179.18C365.681 185.432 365.26 191.959 363.176 196.36C357.952 207.386 349.828 210.866 331.258 220.007C323.653 223.751 320.538 230.729 319.512 237.667C322.471 243.975 326.961 249.417 332.509 253.515C333.761 248.274 336.129 242.441 340.543 237.563C351.57 225.375 368.399 236.981 387.868 227.116C393.028 224.502 396.409 220.174 398.592 215.226C396.53 197.208 382.971 182.685 365.433 179.18Z" fill="#535A63"/>
<path d="M94.4258 41.3478C102.099 58.7976 94.1755 79.1613 76.7277 86.8341C59.2799 94.5091 38.915 86.586 31.2416 69.1362C23.5679 51.6886 31.4917 31.3249 48.9395 23.6498C66.3873 15.977 86.7522 23.9002 94.4258 41.3478Z" fill="#EBEBEB"/>
<path d="M10.5813 85.8958C7.51643 85.8958 5.72386 85.217 5.11717 83.8389C4.25043 81.8677 6.09983 79.0417 10.7712 75.1963C14.9285 71.7772 21.2476 67.6386 29.0451 63.2339C29.4066 63.0286 29.8651 63.1572 30.0695 63.518C30.2738 63.8789 30.1464 64.3367 29.7848 64.542C22.062 68.9061 15.8173 72.9928 11.7265 76.3578C6.10119 80.9859 6.29899 82.7902 6.49363 83.2322C6.72999 83.7713 8.75846 86.2296 25.5217 81.8113C37.2431 78.7215 52.242 73.2612 67.7561 66.4387C83.2699 59.6162 97.4309 52.2502 107.63 45.7006C122.215 36.3318 121.775 33.1742 121.539 32.6374C121.345 32.1976 120.165 30.8467 113.065 31.83C107.9 32.545 100.769 34.3448 92.4431 37.0332C92.0475 37.1617 91.6242 36.9452 91.4966 36.5505C91.3689 36.1536 91.5856 35.7318 91.9808 35.6033C100.388 32.8878 107.607 31.0677 112.86 30.3393C118.764 29.5228 122.055 30.0754 122.914 32.0308C123.609 33.6118 122.574 35.716 119.75 38.4631C117.262 40.8808 113.46 43.7429 108.442 46.9658C98.1797 53.556 83.9447 60.9627 68.3612 67.8145C52.7777 74.6686 37.7001 80.1559 25.9052 83.2638C20.1393 84.7839 15.4596 85.6545 11.9963 85.853C11.4976 85.88 11.026 85.8958 10.5813 85.8958Z" fill="#ADB9C8"/>
<path d="M208.933 129.614L204.039 128.971L212.941 61.159L217.833 61.8018L208.933 129.614Z" fill="white"/>
<path d="M204.883 128.324L208.287 128.771L216.99 62.4491L213.589 62.0025L204.883 128.324ZM208.934 130.365C208.9 130.365 208.869 130.363 208.835 130.361L203.943 129.718C203.53 129.664 203.241 129.285 203.296 128.874L212.195 61.062C212.222 60.8635 212.324 60.6854 212.484 60.5636C212.642 60.4418 212.84 60.3877 213.039 60.4147L217.933 61.0552C218.343 61.1094 218.634 61.4883 218.58 61.8988L209.678 129.711C209.653 129.91 209.55 130.09 209.392 130.209C209.259 130.311 209.099 130.365 208.934 130.365Z" fill="#535A63"/>
<path d="M201.263 131.163C201.919 126.159 206.509 122.634 211.513 123.29C216.52 123.949 220.045 128.538 219.387 133.543C218.731 138.548 214.141 142.073 209.136 141.416C204.129 140.76 200.604 136.168 201.263 131.163Z" fill="white"/>
<path d="M210.306 123.964C208.47 123.964 206.695 124.564 205.215 125.701C203.438 127.065 202.299 129.041 202.006 131.263C201.715 133.484 202.306 135.685 203.67 137.463C205.035 139.24 207.011 140.379 209.232 140.67C211.454 140.963 213.655 140.372 215.432 139.008C217.209 137.641 218.348 135.667 218.641 133.446C219.244 128.858 216 124.639 211.415 124.036C211.045 123.987 210.673 123.964 210.306 123.964ZM210.344 142.246C209.911 142.246 209.473 142.219 209.036 142.161C206.417 141.818 204.088 140.474 202.477 138.378C200.869 136.283 200.172 133.685 200.515 131.066C200.86 128.446 202.202 126.118 204.3 124.508C206.395 122.898 208.993 122.201 211.611 122.546C217.02 123.256 220.84 128.234 220.132 133.64C219.787 136.261 218.445 138.59 216.348 140.198C214.602 141.54 212.509 142.246 210.344 142.246Z" fill="#535A63"/>
</svg>
