<svg width="500" height="384" viewBox="0 0 500 384" fill="none" xmlns="http://www.w3.org/2000/svg">
<path d="M451.296 290.441H48.8906C57.9729 290.441 66.1983 286.891 72.1504 281.156C78.1026 275.419 81.7857 267.495 81.7857 258.742C81.7857 241.234 67.057 227.042 48.8906 227.042H451.296C442.212 227.042 433.989 230.589 428.033 236.327C422.079 242.064 418.4 249.988 418.4 258.742C418.4 276.249 433.125 290.441 451.296 290.441Z" fill="#EEEEEE"/>
<path d="M453.686 383.062H46.3111C20.7342 383.062 0 362.328 0 336.751C0 311.175 20.7342 290.441 46.3111 290.441H453.686C479.263 290.441 500 311.175 500 336.751C500 362.328 479.263 383.062 453.686 383.062Z" fill="#EEEEEE"/>
<path d="M430.734 132.53H154.902C143.548 132.53 134.344 123.323 134.344 111.969C134.344 100.615 143.548 91.4112 154.902 91.4112H430.734C442.091 91.4112 451.295 100.615 451.295 111.969C451.295 123.323 442.091 132.53 430.734 132.53Z" fill="#EEEEEE"/>
<path d="M462.33 227.042H47.6308C28.6319 227.042 13.2305 211.641 13.2305 192.644C13.2305 173.644 28.6319 158.243 47.6308 158.243H462.33C481.327 158.243 496.728 173.644 496.728 192.644C496.728 211.641 481.327 227.042 462.33 227.042Z" fill="#EEEEEE"/>
<path d="M249.999 224.75C239.743 224.75 229.993 221.512 221.804 215.389C213.887 209.467 207.919 201.034 204.998 191.642C202.939 185.025 196.993 180.581 190.203 180.581H90.3633C87.0681 180.581 83.83 181.117 80.7391 182.178C79.5596 182.582 78.2524 182.2 77.4748 181.225C76.6975 180.251 76.6179 178.89 77.2758 177.832L94.0159 150.871C94.8753 149.486 96.6942 149.06 98.0785 149.921C99.4625 150.781 99.8882 152.598 99.0285 153.983L86.0136 174.945C87.4509 174.769 88.9025 174.68 90.3633 174.68H190.203C199.591 174.68 207.801 180.793 210.632 189.89C216.019 207.212 231.839 218.85 249.999 218.85C268.162 218.85 283.982 207.212 289.368 189.89C292.199 180.793 300.41 174.68 309.799 174.68H409.638C411.097 174.68 412.546 174.769 413.981 174.942L379.178 118.891C376.341 114.323 371.436 111.593 366.057 111.593H243.431C241.802 111.593 240.481 110.273 240.481 108.644C240.481 107.013 241.802 105.692 243.431 105.692H366.057C373.491 105.692 380.27 109.465 384.191 115.779L422.719 177.829C423.376 178.887 423.296 180.248 422.519 181.222C421.741 182.197 420.434 182.579 419.255 182.175C416.171 181.117 412.935 180.581 409.638 180.581H309.799C303.007 180.581 297.06 185.025 295.003 191.642C292.082 201.034 286.113 209.467 278.196 215.389C270.003 221.512 260.253 224.75 249.999 224.75Z" fill="#666666"/>
<path d="M114.393 126.59C113.862 126.59 113.324 126.445 112.84 126.146C111.455 125.285 111.03 123.465 111.89 122.083L115.803 115.779C119.725 109.465 126.505 105.692 133.938 105.692H198.54C200.17 105.692 201.49 107.013 201.49 108.644C201.49 110.273 200.17 111.593 198.54 111.593H133.938C128.559 111.593 123.654 114.323 120.815 118.891L116.902 125.196C116.344 126.093 115.379 126.59 114.393 126.59Z" fill="#666666"/>
<path d="M90.3623 180.581C87.0672 180.581 83.8291 181.117 80.7381 182.178C68.7629 186.284 60.7167 197.555 60.7167 210.226V318.399C60.7167 334.743 74.0158 348.044 90.3623 348.044H409.637C425.982 348.044 439.282 334.743 439.282 318.399V210.226C439.282 197.555 431.234 186.284 419.254 182.175C416.17 181.117 412.934 180.581 409.637 180.581H309.798C303.006 180.581 297.059 185.025 295.002 191.642C292.081 201.034 286.112 209.467 278.195 215.389C270.002 221.512 260.252 224.75 249.998 224.75C239.742 224.75 229.993 221.512 221.803 215.389C213.887 209.47 207.918 201.034 204.997 191.642C202.938 185.025 196.992 180.581 190.202 180.581H90.3623ZM409.637 353.944H90.3623C70.7623 353.944 54.8164 337.997 54.8164 318.399V210.226C54.8164 195.035 64.4647 181.521 78.8242 176.595C82.5327 175.325 86.4145 174.68 90.3623 174.68H190.202C199.59 174.68 207.8 180.793 210.631 189.89C216.018 207.212 231.838 218.85 249.998 218.85C268.161 218.85 283.981 207.212 289.367 189.89C292.198 180.793 300.409 174.68 309.798 174.68H409.637C413.585 174.68 417.465 175.325 421.167 176.592C435.531 181.518 445.182 195.035 445.182 210.226V318.399C445.182 337.997 429.236 353.944 409.637 353.944Z" fill="#666666"/>
<path d="M335.527 61.3159C334.176 61.3159 332.958 60.3813 332.649 59.0087C332.295 57.4202 333.297 55.841 334.886 55.4862C343.016 53.6695 351.431 51.6677 359.892 49.5363C361.474 49.1415 363.075 50.0976 363.473 51.6769C363.871 53.2592 362.911 54.8632 361.332 55.258C352.819 57.4017 344.355 59.4159 336.172 61.245C335.956 61.2943 335.74 61.3159 335.527 61.3159Z" fill="#666666"/>
<path d="M208.533 33.6543C196.675 33.6543 184.281 38.9657 177.992 46.4672C171.137 54.6473 174.174 58.8514 177.055 61.3005C183.626 66.8896 199.058 70.1129 220.507 70.3781C225.248 70.4367 230.271 70.3504 235.545 70.1221C236.335 65.1067 236.472 60.517 235.949 56.3777C234.893 48.0064 231.182 41.7973 224.918 37.9201C220.122 34.9528 214.392 33.6543 208.533 33.6543ZM126.001 143.184C86.0396 143.184 49.9333 135.411 49.564 135.331C47.9721 134.986 46.9635 133.413 47.3105 131.821C47.6575 130.229 49.2291 129.218 50.8213 129.566C51.1945 129.65 88.6201 137.697 129.131 137.268C152.764 137.018 172.795 133.98 188.665 128.234C208.097 121.198 221.251 110.054 227.76 95.1157C230.736 88.2866 232.934 81.9326 234.348 76.0752C229.49 76.2633 224.845 76.3312 220.434 76.2788C197.281 75.9919 180.959 72.3676 173.233 65.7946C166.132 59.7552 166.218 51.3283 173.47 42.6794C179.182 35.8627 188.448 30.7764 198.891 28.7253C209.69 26.6062 220.309 28.1299 228.023 32.9047C235.766 37.6949 240.531 45.5573 241.803 55.6405C242.349 59.968 242.263 64.6996 241.547 69.8106C262.023 68.5645 285.928 65.3412 311.93 60.2888C313.531 59.9803 315.08 61.0229 315.391 62.6237C315.7 64.2215 314.657 65.7699 313.056 66.0814C286.206 71.2973 261.527 74.5854 240.463 75.7821C238.989 82.4601 236.555 89.7024 233.17 97.4723C225.982 113.968 211.67 126.189 190.63 133.795C174.12 139.767 153.417 142.922 129.097 143.169C128.064 143.181 127.029 143.184 126.001 143.184Z" fill="#666666"/>
<path d="M399.241 32.8646C395.453 35.9985 386.974 32.9695 380.296 26.1003C373.621 19.2281 371.28 11.1159 375.064 7.97899C378.852 4.84515 387.334 7.87413 394.009 14.7464C400.684 21.6186 403.025 29.7308 399.241 32.8646Z" fill="#666666"/>
<path d="M384.48 42.3741C382.654 38.2532 387.969 32.0411 396.349 28.5001C404.73 24.9591 413.006 25.431 414.832 29.555C416.658 33.6758 411.343 39.888 402.963 43.4259C394.582 46.9669 386.306 46.495 384.48 42.3741Z" fill="#666666"/>
<path d="M399.945 33.8671C395.022 34.6752 390.031 27.7629 388.797 18.4262C387.564 9.09251 390.553 0.869274 395.475 0.0642242C400.398 -0.743912 405.389 6.16842 406.623 15.5021C407.857 24.8388 404.868 33.059 399.945 33.8671Z" fill="#666666"/>
<path d="M415.101 27.439C414.87 28.9288 413.149 30.0177 411.255 29.8727C409.361 29.7246 408.013 28.4014 408.245 26.9116C408.476 25.4218 410.197 24.333 412.091 24.4779C413.985 24.626 415.33 25.9492 415.101 27.439Z" fill="#666666"/>
<path d="M397.584 48.904C397.457 48.8948 397.343 48.8269 397.287 48.7128C397.201 48.54 397.287 48.3272 397.482 48.2378C402.096 46.1125 407.087 34.8172 407.414 33.8332C407.479 33.6451 407.694 33.5278 407.898 33.5772C408.099 33.6235 408.213 33.8147 408.151 34.0029C408.111 34.1231 403.102 46.421 397.796 48.8639C397.725 48.8978 397.654 48.9102 397.584 48.904Z" fill="#666666"/>
<path d="M390.229 47.8521C390.121 47.7904 390.047 47.6763 390.047 47.5529C390.044 47.3586 390.217 47.2075 390.429 47.2106C395.506 47.3278 404.951 39.3698 405.679 38.6295C405.818 38.4876 406.065 38.4784 406.225 38.611C406.385 38.7406 406.404 38.9627 406.265 39.1045C406.176 39.194 396.274 48.0465 390.436 47.9107C390.358 47.9107 390.287 47.8891 390.229 47.8521Z" fill="#666666"/>
</svg>
