<svg width="521" height="466" viewBox="0 0 521 466" fill="none" xmlns="http://www.w3.org/2000/svg">
<path d="M433.794 410.61H86.6965C48.4727 410.61 17.4863 379.621 17.4863 341.4C17.4863 303.175 48.4727 272.189 86.6965 272.189H433.794C472.019 272.189 503.005 303.175 503.005 341.4C503.005 379.621 472.019 410.61 433.794 410.61Z" fill="#EEEEEE"/>
<path d="M438.195 446.198H82.3043C61.4731 446.198 44.5859 429.309 44.5859 408.479C44.5859 387.646 61.4731 370.761 82.3043 370.761H438.195C459.028 370.761 475.913 387.646 475.913 408.479C475.913 429.309 459.028 446.198 438.195 446.198Z" fill="#EEEEEE"/>
<path d="M432.413 228.145H88.0855C39.4374 228.145 0 188.709 0 140.062V140.059C0 91.4121 39.4374 51.9765 88.0855 51.9765H432.413C481.06 51.9765 520.499 91.4121 520.499 140.059V140.062C520.499 188.709 481.06 228.145 432.413 228.145Z" fill="#EEEEEE"/>
<path d="M43.7762 127.322C42.8732 127.322 42.117 126.614 42.0657 125.701C41.9885 124.334 41.9492 122.953 41.9492 121.605C41.9492 119.049 42.089 116.493 42.3634 114.004C42.4671 113.066 43.3153 112.383 44.2562 112.489C45.1975 112.592 45.8765 113.441 45.7724 114.383C45.5115 116.748 45.3791 119.176 45.3791 121.605C45.3791 122.89 45.4167 124.203 45.4899 125.509C45.543 126.455 44.8198 127.265 43.8743 127.318C43.841 127.318 43.8084 127.322 43.7762 127.322ZM48.289 149.645C47.5757 149.645 46.9095 149.195 46.6663 148.484C45.3851 144.728 44.3504 140.951 43.5918 137.262C43.4006 136.335 43.9982 135.428 44.926 135.237C45.856 135.046 46.7601 135.644 46.9512 136.572C47.6812 140.119 48.6773 143.755 49.9124 147.376C50.2183 148.272 49.7393 149.245 48.843 149.549C48.6596 149.613 48.4727 149.645 48.289 149.645ZM221.875 151.1C221.02 151.1 220.28 150.459 220.175 149.588C220.062 148.647 220.732 147.794 221.672 147.68C223.693 147.436 225.738 147.312 227.752 147.312C227.754 147.312 227.755 147.312 227.757 147.312C229.67 147.312 231.596 147.426 233.481 147.645C234.422 147.755 235.095 148.608 234.985 149.546C234.876 150.488 234.023 151.16 233.083 151.05C229.478 150.633 225.756 150.643 222.083 151.086C222.013 151.093 221.943 151.1 221.875 151.1ZM200.5 158.676C199.925 158.676 199.363 158.385 199.039 157.861C198.542 157.054 198.792 155.999 199.598 155.5C202.971 153.422 206.538 151.702 210.201 150.396C211.093 150.077 212.075 150.541 212.393 151.436C212.711 152.328 212.246 153.309 211.354 153.628C207.917 154.852 204.568 156.467 201.399 158.421C201.119 158.594 200.807 158.676 200.5 158.676ZM254.401 159.164C254.056 159.164 253.709 159.061 253.407 158.846C250.421 156.714 247.17 154.969 243.745 153.659C242.86 153.32 242.417 152.328 242.755 151.443C243.093 150.558 244.084 150.116 244.97 150.456C248.668 151.868 252.177 153.751 255.399 156.052C256.17 156.605 256.349 157.674 255.799 158.446C255.464 158.913 254.937 159.164 254.401 159.164ZM57.8813 170.358C57.2912 170.358 56.717 170.053 56.3984 169.508C54.4118 166.103 52.6 162.651 51.0134 159.246C50.6137 158.389 50.9851 157.369 51.8435 156.966C52.702 156.566 53.7225 156.937 54.1222 157.798C55.6646 161.108 57.4272 164.464 59.3607 167.781C59.8383 168.598 59.5618 169.646 58.744 170.124C58.4722 170.283 58.1748 170.358 57.8813 170.358ZM183.832 174.117C183.477 174.117 183.118 174.007 182.811 173.781C182.051 173.214 181.892 172.142 182.457 171.381C184.818 168.202 187.444 165.256 190.263 162.633C190.956 161.989 192.041 162.024 192.687 162.718C193.332 163.412 193.293 164.499 192.6 165.143C189.934 167.625 187.447 170.414 185.211 173.427C184.874 173.88 184.356 174.117 183.832 174.117ZM269.142 176.365C268.523 176.365 267.928 176.029 267.62 175.445C267.521 175.253 267.418 175.062 267.316 174.871C265.638 171.756 263.673 168.867 261.482 166.287C260.866 165.564 260.954 164.481 261.676 163.869C262.398 163.256 263.478 163.341 264.094 164.063C266.445 166.828 268.544 169.919 270.335 173.243C270.445 173.448 270.551 173.65 270.661 173.855C271.1 174.694 270.774 175.728 269.935 176.17C269.68 176.301 269.408 176.365 269.142 176.365ZM70.9153 189.13C70.4147 189.13 69.9191 188.911 69.5803 188.493C67.125 185.456 64.7882 182.348 62.6345 179.254C62.0929 178.478 62.284 177.409 63.0614 176.868C63.8385 176.326 64.9075 176.517 65.4488 177.292C67.5562 180.319 69.8437 183.36 72.2477 186.337C72.8432 187.074 72.7285 188.153 71.9918 188.748C71.6746 189.006 71.2937 189.13 70.9153 189.13ZM400.975 191.941C400.614 191.941 400.253 191.828 399.945 191.598C399.188 191.028 399.035 189.955 399.605 189.198C401.871 186.174 404.087 183.07 406.193 179.962C406.724 179.176 407.79 178.974 408.572 179.505C409.358 180.036 409.563 181.102 409.032 181.884C406.898 185.038 404.646 188.192 402.345 191.254C402.009 191.704 401.496 191.941 400.975 191.941ZM173.405 194.348C173.223 194.348 173.038 194.32 172.856 194.26C171.959 193.955 171.476 192.982 171.779 192.086C173.046 188.334 174.566 184.712 176.299 181.328C176.73 180.486 177.764 180.149 178.607 180.581C179.45 181.013 179.784 182.047 179.353 182.889C177.696 186.125 176.242 189.587 175.029 193.184C174.788 193.899 174.12 194.348 173.405 194.348ZM275.309 198.207C274.413 198.207 273.663 197.513 273.599 196.607C273.355 192.925 272.721 189.261 271.719 185.714C271.461 184.804 271.988 183.856 272.902 183.597C273.815 183.339 274.76 183.87 275.019 184.78C276.088 188.557 276.76 192.461 277.022 196.38C277.086 197.322 276.371 198.14 275.426 198.203C275.387 198.207 275.348 198.207 275.309 198.207ZM86.3851 205.966C85.9564 205.966 85.5273 205.807 85.1946 205.485C82.4072 202.798 79.6927 200.019 77.1273 197.233C76.4858 196.536 76.5308 195.453 77.2278 194.808C77.9248 194.168 79.0095 194.214 79.6509 194.911C82.1707 197.647 84.837 200.377 87.5756 203.018C88.2574 203.676 88.2772 204.759 87.6195 205.443C87.2832 205.789 86.8339 205.966 86.3851 205.966ZM386.415 209.531C386.005 209.531 385.591 209.386 385.261 209.085C384.56 208.448 384.511 207.365 385.148 206.664C387.69 203.871 390.189 200.989 392.582 198.101C393.187 197.371 394.267 197.269 394.996 197.874C395.726 198.476 395.828 199.559 395.223 200.288C392.798 203.216 390.263 206.14 387.686 208.972C387.346 209.344 386.883 209.531 386.415 209.531ZM168.903 216.7C168.855 216.7 168.807 216.696 168.758 216.693C167.815 216.615 167.113 215.786 167.192 214.841C167.522 210.905 168.061 207.036 168.795 203.336C168.979 202.409 169.882 201.807 170.811 201.991C171.74 202.175 172.344 203.078 172.159 204.005C171.45 207.577 170.929 211.319 170.611 215.128C170.535 216.024 169.786 216.7 168.903 216.7ZM272.162 220.693C271.971 220.693 271.776 220.661 271.588 220.594C270.696 220.275 270.229 219.295 270.548 218.402C271.79 214.916 272.679 211.301 273.192 207.659C273.323 206.72 274.194 206.066 275.128 206.197C276.066 206.331 276.721 207.198 276.59 208.136C276.045 212.006 275.096 215.85 273.78 219.553C273.528 220.254 272.866 220.693 272.162 220.693ZM103.692 220.895C103.326 220.895 102.958 220.781 102.646 220.541C99.6056 218.19 96.6022 215.74 93.7196 213.259C93.0024 212.639 92.922 211.556 93.5401 210.838C94.1586 210.122 95.2415 210.041 95.959 210.661C98.7953 213.103 101.75 215.514 104.742 217.825C105.492 218.403 105.63 219.479 105.051 220.229C104.713 220.668 104.205 220.895 103.692 220.895ZM370.276 225.723C369.813 225.723 369.349 225.536 369.013 225.167C368.372 224.467 368.418 223.383 369.119 222.743C371.905 220.19 374.663 217.546 377.318 214.884C377.983 214.215 379.07 214.211 379.742 214.88C380.411 215.549 380.415 216.636 379.746 217.305C377.056 220.006 374.259 222.686 371.434 225.274C371.105 225.575 370.691 225.723 370.276 225.723ZM122.507 233.897C122.201 233.897 121.89 233.816 121.61 233.642C118.354 231.639 115.105 229.518 111.951 227.337C111.172 226.799 110.977 225.734 111.516 224.951C112.054 224.173 113.122 223.978 113.901 224.516C117.005 226.661 120.204 228.75 123.408 230.722C124.215 231.217 124.466 232.276 123.969 233.083C123.645 233.607 123.083 233.897 122.507 233.897ZM169.54 239.487C168.717 239.487 167.991 238.892 167.851 238.053C167.237 234.375 166.887 230.467 166.809 226.435C166.79 225.486 167.543 224.704 168.49 224.686C169.44 224.672 170.219 225.419 170.238 226.368C170.313 230.233 170.648 233.975 171.234 237.487C171.39 238.421 170.759 239.306 169.825 239.462C169.729 239.476 169.634 239.487 169.54 239.487ZM260.441 240.145C260.025 240.145 259.609 239.996 259.28 239.696C258.582 239.055 258.536 237.972 259.176 237.274C261.669 234.556 263.903 231.571 265.808 228.407C266.296 227.596 267.351 227.334 268.162 227.822C268.972 228.311 269.234 229.366 268.746 230.177C266.721 233.536 264.353 236.704 261.705 239.593C261.365 239.961 260.901 240.145 260.441 240.145ZM352.746 240.4C352.233 240.4 351.72 240.166 351.384 239.724C350.81 238.973 350.952 237.897 351.706 237.32C354.704 235.03 357.688 232.644 360.573 230.226C361.299 229.617 362.382 229.713 362.988 230.438C363.596 231.168 363.501 232.247 362.775 232.856C359.851 235.306 356.828 237.724 353.787 240.046C353.476 240.283 353.111 240.4 352.746 240.4ZM142.617 244.818C142.371 244.818 142.121 244.765 141.884 244.652C138.449 243.027 134.989 241.271 131.6 239.43C130.768 238.977 130.46 237.936 130.912 237.104C131.364 236.272 132.406 235.964 133.238 236.414C136.571 238.226 139.973 239.954 143.351 241.551C144.207 241.958 144.573 242.981 144.168 243.837C143.875 244.453 143.259 244.818 142.617 244.818ZM163.837 253.332C163.66 253.332 163.479 253.303 163.301 253.247C159.713 252.064 156.064 250.73 152.457 249.278C151.578 248.924 151.152 247.926 151.506 247.048C151.86 246.17 152.859 245.742 153.737 246.096C157.276 247.519 160.855 248.829 164.374 249.99C165.274 250.284 165.763 251.254 165.466 252.153C165.229 252.875 164.558 253.332 163.837 253.332ZM333.984 253.459C333.414 253.459 332.859 253.179 332.533 252.663C332.027 251.859 332.264 250.801 333.064 250.294C336.246 248.287 339.429 246.174 342.53 244.018C343.309 243.476 344.374 243.667 344.916 244.443C345.458 245.222 345.266 246.291 344.491 246.832C341.348 249.02 338.119 251.162 334.898 253.194C334.615 253.374 334.296 253.459 333.984 253.459ZM242.063 253.495C241.412 253.495 240.79 253.123 240.502 252.493C240.108 251.629 240.487 250.613 241.348 250.22C244.718 248.677 247.935 246.8 250.911 244.641C251.678 244.082 252.751 244.255 253.306 245.02C253.863 245.788 253.692 246.861 252.926 247.416C249.766 249.707 246.351 251.7 242.775 253.339C242.544 253.445 242.302 253.495 242.063 253.495ZM220.149 259.757C219.309 259.757 218.574 259.137 218.453 258.281C218.32 257.342 218.972 256.475 219.91 256.341C223.673 255.81 227.359 255.034 230.865 254.043C231.776 253.785 232.724 254.316 232.982 255.226C233.24 256.135 232.71 257.084 231.799 257.342C228.145 258.376 224.307 259.183 220.392 259.739C220.31 259.75 220.229 259.757 220.149 259.757ZM206.346 260.702C203.361 260.702 200.285 260.578 197.203 260.33C196.259 260.256 195.554 259.428 195.63 258.486C195.705 257.541 196.529 256.836 197.476 256.911C200.467 257.151 203.452 257.272 206.346 257.272C207.132 257.272 207.931 257.261 208.723 257.243C209.671 257.229 210.455 257.973 210.476 258.921C210.497 259.867 209.748 260.652 208.801 260.674C207.983 260.691 207.158 260.702 206.346 260.702ZM177.422 260.762C176.856 260.762 176.301 260.479 175.974 259.966C175.2 258.751 174.471 257.491 173.789 256.192C173.364 255.873 173.104 255.371 173.101 254.833C172.245 253.08 171.474 251.264 170.795 249.395C170.471 248.507 170.93 247.523 171.821 247.197C172.711 246.875 173.695 247.335 174.018 248.223C174.666 250.004 175.401 251.735 176.219 253.399C179.604 254.231 182.986 254.939 186.288 255.502C187.222 255.661 187.849 256.546 187.69 257.481C187.531 258.415 186.647 259.045 185.711 258.882C183.32 258.475 180.888 257.994 178.443 257.445C178.583 257.675 178.724 257.898 178.867 258.125C179.376 258.925 179.141 259.983 178.342 260.493C178.056 260.674 177.737 260.762 177.422 260.762ZM314.114 264.773C313.488 264.773 312.886 264.43 312.585 263.835C312.153 262.989 312.49 261.959 313.336 261.527C316.674 259.828 320.037 258.015 323.329 256.139C324.15 255.672 325.198 255.958 325.669 256.783C326.136 257.604 325.849 258.652 325.025 259.12C321.686 261.021 318.277 262.861 314.89 264.585C314.642 264.713 314.376 264.773 314.114 264.773ZM293.253 274.133C292.566 274.133 291.919 273.715 291.657 273.039C291.313 272.154 291.749 271.163 292.63 270.819C296.106 269.467 299.629 267.991 303.098 266.433C303.962 266.044 304.974 266.43 305.363 267.293C305.753 268.157 305.367 269.173 304.503 269.563C300.981 271.141 297.406 272.642 293.876 274.016C293.671 274.094 293.462 274.133 293.253 274.133ZM193.66 276.54C193.357 276.54 193.05 276.459 192.771 276.289C189.35 274.211 186.208 271.793 183.432 269.109C182.752 268.451 182.734 267.364 183.392 266.685C184.051 266.001 185.137 265.984 185.817 266.642C188.41 269.152 191.349 271.41 194.553 273.357C195.362 273.849 195.62 274.904 195.128 275.715C194.805 276.246 194.239 276.54 193.66 276.54ZM271.521 281.223C270.76 281.223 270.066 280.714 269.864 279.942C269.624 279.025 270.169 278.09 271.086 277.85C274.668 276.908 278.325 275.828 281.953 274.642C282.856 274.345 283.823 274.837 284.116 275.736C284.414 276.639 283.922 277.605 283.023 277.903C279.327 279.11 275.603 280.207 271.957 281.167C271.811 281.206 271.663 281.223 271.521 281.223ZM214.936 284.583C214.823 284.583 214.709 284.572 214.594 284.547C210.651 283.747 206.868 282.682 203.349 281.376C202.461 281.043 202.009 280.059 202.338 279.17C202.667 278.282 203.654 277.828 204.542 278.158C207.896 279.404 211.506 280.423 215.275 281.188C216.204 281.376 216.804 282.282 216.615 283.209C216.45 284.02 215.735 284.583 214.936 284.583ZM249.076 285.521C248.218 285.521 247.477 284.877 247.375 284.002C247.266 283.061 247.94 282.211 248.881 282.101C252.523 281.676 256.281 281.092 260.05 280.367C260.979 280.19 261.878 280.795 262.059 281.726C262.239 282.653 261.63 283.553 260.699 283.733C256.847 284.477 253.004 285.075 249.277 285.507C249.21 285.517 249.143 285.521 249.076 285.521ZM234.246 286.409C231.491 286.409 228.76 286.31 226.127 286.116C225.183 286.045 224.474 285.224 224.544 284.278C224.615 283.333 225.442 282.622 226.382 282.696C229.993 282.965 233.785 283.043 237.63 282.93C238.583 282.905 239.366 283.648 239.394 284.597C239.421 285.542 238.676 286.332 237.729 286.36C236.565 286.392 235.393 286.409 234.246 286.409Z" fill="#333333"/>
<path d="M346.957 341.856L344.164 344.2L329.381 356.604L320.287 345.768L318.949 344.172L317.607 342.572L300.831 322.578L299.486 320.974L298.137 319.37L283.432 301.84L282.076 300.23L280.734 298.626C281.311 298.237 281.888 297.837 282.458 297.437C285.004 295.642 287.489 293.73 289.903 291.705C292.324 289.673 294.636 287.556 296.834 285.365C297.333 284.873 297.822 284.374 298.3 283.871L299.656 285.482L301.004 287.089L315.717 304.626L317.058 306.226L318.407 307.834L335.183 327.827L336.521 329.424L337.863 331.021L344.614 339.06L346.957 341.856Z" fill="#C4C4C4"/>
<path d="M346.628 338.224L339.46 329.679L338.118 328.082L336.78 326.486L319.887 306.35L318.538 304.743L317.197 303.143L302.456 285.578L301.104 283.967L299.745 282.349C299.274 282.859 298.792 283.369 298.3 283.871C297.822 284.374 297.334 284.873 296.835 285.365L298.183 286.976L299.529 288.576L314.22 306.085L315.561 307.685L316.906 309.288L333.587 329.169L334.925 330.762L336.267 332.362L343.435 340.901L344.019 341.598L343.322 342.182L329.64 353.666L321.887 344.426L320.546 342.826L319.204 341.23L302.527 321.356L301.185 319.756L299.837 318.149L285.149 300.644L283.8 299.037L282.459 297.437C281.889 297.837 281.312 298.237 280.735 298.626C280.154 299.019 279.57 299.405 278.982 299.784L280.331 301.394L281.687 303.005L296.42 320.563L297.769 322.171L299.118 323.778L316.011 343.913L317.352 345.51L318.691 347.106L329.127 359.542L345.527 345.779L349.896 342.115L346.628 338.224Z" fill="#333333"/>
<path d="M393.762 456.853L312.551 360.07C309.687 356.657 310.133 351.567 313.546 348.703L341.926 324.889C345.339 322.025 350.429 322.471 353.293 325.884L434.504 422.668C441.209 430.657 440.168 442.573 432.175 449.278L420.373 459.183C412.379 465.887 400.467 464.843 393.762 456.853Z" fill="#9E9E9E"/>
<path d="M347.11 325.091C345.75 325.091 344.388 325.548 343.269 326.486L314.885 350.303C312.361 352.423 312.028 356.204 314.149 358.728L395.36 455.512C398.245 458.953 402.298 461.059 406.769 461.452C411.24 461.845 415.595 460.468 419.032 457.583L430.838 447.678C437.932 441.723 438.863 431.103 432.909 424.009L351.698 327.226C350.515 325.817 348.816 325.091 347.11 325.091ZM408.249 465.679C402.259 465.679 396.309 463.13 392.167 458.195L310.956 361.411C307.356 357.121 307.918 350.706 312.205 347.106L340.586 323.293C344.876 319.693 351.294 320.255 354.891 324.542L436.102 421.326C439.706 425.62 441.419 431.054 440.93 436.636C440.442 442.215 437.808 447.274 433.518 450.874L421.712 460.779C417.793 464.071 413.007 465.679 408.249 465.679Z" fill="#333333"/>
<path d="M299.743 282.349C299.272 282.859 298.791 283.369 298.299 283.871C297.821 284.374 297.332 284.873 296.833 285.365C294.635 287.556 292.323 289.673 289.902 291.705C287.488 293.73 285.003 295.642 282.457 297.437C281.887 297.837 281.31 298.237 280.733 298.626C280.153 299.019 279.569 299.405 278.981 299.784C258.685 312.959 234.732 318.967 210.247 316.825C181.207 314.283 154.895 300.587 136.161 278.257C97.4827 232.162 103.516 163.193 149.61 124.518C195.708 85.8365 264.672 91.8723 303.35 137.967C339.08 180.546 336.655 242.641 299.743 282.349ZM325.606 119.297C276.553 60.8335 189.397 53.2084 130.94 102.262C72.4786 151.316 64.8527 238.471 113.908 296.93C160.021 351.885 239.801 361.918 297.768 322.171C298.341 321.778 298.918 321.378 299.485 320.974C300.055 320.574 300.621 320.167 301.184 319.756C303.694 317.919 306.158 315.99 308.575 313.961C310.99 311.933 313.319 309.841 315.56 307.685C316.062 307.203 316.562 306.722 317.057 306.226C317.556 305.738 318.048 305.242 318.537 304.743C367.739 254.564 371.718 174.252 325.606 119.297Z" fill="#E6E6E6"/>
<path d="M355.329 219.974C352.557 251.647 339.147 280.714 317.196 303.143C316.707 303.639 316.215 304.134 315.716 304.626C315.22 305.115 314.721 305.603 314.219 306.085C311.971 308.248 309.641 310.34 307.234 312.365C304.816 314.393 302.353 316.322 299.836 318.149C299.273 318.563 298.71 318.97 298.136 319.37C297.566 319.774 296.993 320.17 296.42 320.563C273.24 336.394 246.494 344.147 219.866 344.147C180.998 344.143 142.385 327.626 115.506 295.589C67.2693 238.103 74.796 152.098 132.278 103.862C157.015 83.1072 187.614 72.0093 219.523 72.0093C223.536 72.0093 227.572 72.1828 231.619 72.5368C267.83 75.7086 300.639 92.7856 324.01 120.631C347.374 148.48 358.501 183.76 355.329 219.974ZM353.852 166.864C348.341 148.916 339.377 132.458 327.203 117.955C315.029 103.448 300.384 91.759 283.665 83.217C267.515 74.9617 250.129 69.9703 231.982 68.3844C213.833 66.7949 195.841 68.6888 178.509 74.0165C160.559 79.5283 144.103 88.4951 129.599 100.662C115.094 112.836 103.405 127.485 94.8611 144.204C86.6066 160.35 81.618 177.742 80.0289 195.885C78.4394 214.034 80.3337 232.024 85.6614 249.36C91.1721 267.311 100.139 283.769 112.308 298.272C124.48 312.775 139.13 324.461 155.849 333.01C171.996 341.265 189.386 346.253 207.534 347.839C211.676 348.204 215.811 348.384 219.935 348.384C233.86 348.384 247.629 346.317 261.005 342.21C274.638 338.023 287.41 331.842 299.117 323.778C299.69 323.388 300.264 322.988 300.83 322.578C301.4 322.178 301.967 321.77 302.526 321.356C305.043 319.516 307.507 317.583 309.918 315.558C312.325 313.54 314.654 311.448 316.906 309.288C317.412 308.811 317.911 308.326 318.406 307.834C318.906 307.341 319.398 306.849 319.886 306.35C329.858 296.222 338.163 284.721 344.656 272.023C352.907 255.87 357.899 238.485 359.488 220.335C361.071 202.189 359.177 184.195 353.852 166.864Z" fill="#333333"/>
<path d="M299.744 282.349C299.273 282.859 298.792 283.369 298.299 283.871C297.822 284.374 297.333 284.873 296.834 285.365C294.636 287.556 292.324 289.673 289.903 291.705C287.488 293.73 285.003 295.642 282.458 297.437C281.888 297.837 281.311 298.237 280.734 298.626C280.153 299.019 279.569 299.405 278.982 299.784C258.685 312.959 234.733 318.967 210.247 316.825C181.208 314.283 154.896 300.587 136.161 278.257C97.4834 232.162 103.516 163.193 149.61 124.518C195.708 85.8366 264.673 91.8723 303.351 137.967C339.08 180.546 336.655 242.641 299.744 282.349ZM304.951 136.629C265.47 89.5784 195.324 83.4365 148.273 122.918C101.222 162.396 95.0826 232.548 134.565 279.599C171.093 323.133 233.88 331.636 280.33 301.394C280.918 301.012 281.499 300.623 282.076 300.23C282.656 299.844 283.23 299.447 283.8 299.037C286.338 297.252 288.819 295.337 291.244 293.305C293.662 291.273 295.977 289.16 298.183 286.976C298.678 286.48 299.17 285.981 299.655 285.482C300.144 284.979 300.625 284.477 301.103 283.967C338.956 243.473 341.48 180.163 304.951 136.629Z" fill="#FCFCFC"/>
<path d="M210.248 316.825C181.208 314.283 154.896 300.587 136.162 278.257C97.4837 232.162 103.517 163.193 149.611 124.518C195.709 85.8366 264.673 91.8723 303.351 137.967C339.081 180.546 336.656 242.641 299.744 282.349C299.273 282.859 298.792 283.369 298.3 283.871C297.822 284.374 297.333 284.873 296.834 285.365C294.636 287.556 292.324 289.673 289.903 291.705C287.489 293.73 285.004 295.642 282.458 297.437C281.888 297.837 281.311 298.237 280.734 298.626C280.154 299.019 279.57 299.405 278.982 299.784C258.686 312.959 234.733 318.967 210.248 316.825ZM306.548 135.287C287.096 112.103 259.78 97.8832 229.63 95.2423C199.485 92.605 170.114 101.866 146.931 121.322C123.749 140.774 109.53 168.092 106.893 198.235C104.252 228.385 113.513 257.757 132.968 280.94C152.42 304.124 179.737 318.34 209.882 320.978C213.251 321.271 216.608 321.42 219.95 321.42C242.005 321.42 263.303 315.055 281.687 303.005C282.271 302.623 282.851 302.237 283.432 301.84C284.005 301.447 284.582 301.051 285.149 300.644C287.69 298.845 290.172 296.927 292.586 294.902C294.997 292.881 297.316 290.767 299.528 288.576C300.027 288.087 300.519 287.588 301.004 287.089C301.496 286.59 301.978 286.084 302.456 285.578C319.795 267.145 330.383 243.583 332.624 217.985C335.261 187.842 326 158.47 306.548 135.287Z" fill="#333333"/>
<path d="M413.1 421.899C412.081 421.899 411.061 421.475 410.343 420.639L344.194 344.246C342.877 342.72 343.04 340.416 344.566 339.099C346.088 337.778 348.396 337.941 349.713 339.467L415.858 415.86C417.178 417.386 417.012 419.69 415.49 421.011C414.8 421.609 413.95 421.899 413.1 421.899Z" fill="#E6E6E6"/>
<path d="M434.189 152.438C431.97 155.557 424.982 154.976 418.581 151.143C412.181 147.312 408.793 141.677 411.016 138.558C413.236 135.443 420.224 136.023 426.624 139.853C433.025 143.687 436.409 149.323 434.189 152.438Z" fill="#999999"/>
<path d="M423.267 163.869C421.061 161.14 424.194 155.107 430.265 150.403C436.34 145.694 443.048 144.094 445.254 146.824C447.459 149.557 444.326 155.585 438.255 160.293C432.18 165.002 425.472 166.602 423.267 163.869Z" fill="#999999"/>
<path d="M434.921 153.054C431.381 154.647 426.241 150.445 423.441 143.67C420.641 136.891 421.246 130.108 424.786 128.515C428.329 126.918 433.469 131.12 436.27 137.899C439.066 144.675 438.464 151.458 434.921 153.054Z" fill="#CCCCCC"/>
<path d="M445.035 145.181C445.159 146.346 444.083 147.51 442.628 147.78C441.177 148.049 439.895 147.323 439.771 146.155C439.648 144.99 440.724 143.825 442.179 143.556C443.63 143.287 444.912 144.013 445.035 145.181Z" fill="#808080"/>
<path d="M435.031 167.586C434.932 167.604 434.833 167.575 434.769 167.501C434.666 167.388 434.691 167.211 434.818 167.104C437.866 164.58 439.357 155.083 439.406 154.279C439.417 154.123 439.555 153.992 439.718 153.989C439.881 153.982 440.004 154.102 439.994 154.258C439.987 154.357 438.684 164.612 435.179 167.515C435.133 167.55 435.084 167.575 435.031 167.586Z" fill="#999999"/>
<path d="M440.277 167.126C440.185 167.168 440.083 167.161 440.005 167.104C439.881 167.019 439.863 166.839 439.962 166.708C442.352 163.557 441.637 153.967 441.502 153.171C441.477 153.019 441.584 152.859 441.739 152.817C441.895 152.774 442.044 152.863 442.069 153.019C442.086 153.114 443.155 163.398 440.408 167.023C440.373 167.069 440.327 167.104 440.277 167.126Z" fill="#999999"/>
<path d="M444.409 309.558C441.177 309.558 438.544 312.188 438.544 315.423C438.544 318.655 441.177 321.286 444.409 321.286C447.645 321.286 450.275 318.655 450.275 315.423C450.275 312.188 447.645 309.558 444.409 309.558ZM444.409 324.716C439.283 324.716 435.113 320.546 435.113 315.423C435.113 310.297 439.283 306.127 444.409 306.127C449.535 306.127 453.705 310.297 453.705 315.423C453.705 320.546 449.535 324.716 444.409 324.716Z" fill="#333333"/>
<path d="M101.524 377.164L107.813 392.928L118.32 379.6L101.524 377.164ZM107.504 396.132C107.453 396.132 107.401 396.128 107.35 396.121C106.969 396.064 106.648 395.81 106.505 395.452L98.8363 376.23C98.694 375.872 98.7527 375.469 98.991 375.164C99.2285 374.863 99.6084 374.711 99.9896 374.768L120.472 377.738C120.852 377.791 121.174 378.046 121.317 378.403C121.459 378.761 121.4 379.165 121.162 379.469L108.349 395.721C108.143 395.983 107.831 396.132 107.504 396.132Z" fill="#333333"/>
<path d="M284.568 9.5708L290.125 20.7607L301.315 15.2029L295.761 4.013L284.568 9.5708ZM289.35 24.7716C289.166 24.7716 288.982 24.7433 288.805 24.6831C288.373 24.5379 288.019 24.2299 287.814 23.8193L280.734 9.55663C280.313 8.71057 280.659 7.68045 281.509 7.25919L295.772 0.179155C296.618 -0.242105 297.648 0.104828 298.069 0.954428L305.149 15.2136C305.571 16.0632 305.224 17.0933 304.377 17.5146L290.115 24.5946C289.874 24.7114 289.612 24.7716 289.35 24.7716Z" fill="#333333"/>
<path d="M273.364 399.856C273.364 403.477 270.426 406.415 266.804 406.415C263.183 406.415 260.248 403.477 260.248 399.856C260.248 396.234 263.183 393.3 266.804 393.3C270.426 393.3 273.364 396.234 273.364 399.856Z" fill="white"/>
<path d="M376.656 96.8991C376.656 98.9099 375.024 100.542 373.013 100.542C370.999 100.542 369.367 98.9099 369.367 96.8991C369.367 94.8849 370.999 93.2529 373.013 93.2529C375.024 93.2529 376.656 94.8849 376.656 96.8991Z" fill="white"/>
<path d="M119.691 132.327C119.116 132.327 118.536 132.143 118.048 131.761C116.888 130.851 116.684 129.173 117.593 128.016C126.158 117.081 136.394 107.632 148.018 99.9399C159.474 92.3537 172.001 86.6472 185.25 82.9798C212.799 75.3582 241.425 76.9547 268.032 87.603C269.399 88.1517 270.064 89.7022 269.519 91.0722C268.97 92.4387 267.416 93.1042 266.05 92.5555C214.99 72.1226 155.67 88.0561 121.793 131.304C121.267 131.977 120.483 132.327 119.691 132.327Z" fill="white"/>
<path d="M101.732 163.561C101.402 163.561 101.067 163.497 100.742 163.37C99.3739 162.821 98.7088 161.267 99.2561 159.9C102.032 152.962 105.41 146.247 109.295 139.935C110.068 138.682 111.711 138.289 112.966 139.064C114.22 139.836 114.611 141.478 113.839 142.731C110.113 148.785 106.873 155.228 104.21 161.883C103.793 162.927 102.791 163.561 101.732 163.561Z" fill="white"/>
</svg>
