<svg width="1em" height="1em" viewBox="0 0 40 40" fill="none" xmlns="http://www.w3.org/2000/svg">
<path d="M2.93019 23.5989C5.17676 21.3146 8.85078 21.2828 11.1363 23.5279C13.4219 25.7729 13.4535 29.4446 11.2069 31.7289C8.96033 34.0132 1.31383 33.2812 1.31383 33.2812C1.31383 33.2812 0.68361 25.8832 2.93019 23.5989Z" fill="#30947F"/>
<path d="M4.36022 16.6023C2.63279 16.6023 1.23242 15.202 1.23242 13.4745V12.4606H7.488V13.4745C7.488 15.202 6.08765 16.6023 4.36022 16.6023Z" fill="#30947F"/>
<path d="M16.8719 16.6023C15.1445 16.6023 13.7441 15.202 13.7441 13.4745V12.4606H19.9997V13.4745C19.9997 15.2019 18.5994 16.6023 16.8719 16.6023Z" fill="#30947F"/>
<path d="M29.3817 16.6023C27.6543 16.6023 26.2539 15.202 26.2539 13.4745V12.4606H32.5095V13.4745C32.5095 15.2019 31.1091 16.6023 29.3817 16.6023Z" fill="#30947F"/>
<path d="M10.1901 7.72021L7.488 12.4606H1.23242L5.28552 7.72021H10.1901Z" fill="#30947F"/>
<path d="M19.9997 7.72021V12.4606H13.7441L15.0952 7.72021H19.9997Z" fill="#30947F"/>
<path d="M29.8089 7.72021L32.5109 12.4606H26.2553L24.9043 7.72021H29.8089Z" fill="#30947F"/>
<path d="M19.9997 7.72021V12.4606H13.7441L15.0952 7.72021H19.9997Z" fill="#30947F"/>
<path d="M18.3379 23.8727V32.9091C18.3379 33.4534 18.7791 33.8945 19.3233 33.8945H32.5619C33.1061 33.8945 33.5473 33.4534 33.5473 32.9091V23.8727C33.5473 23.3285 33.1061 22.8873 32.5619 22.8873H19.3233C18.7791 22.8873 18.3379 23.3285 18.3379 23.8727Z" fill="#30947F"/>
<path d="M39.1012 12.1739L35.1024 7.4973V4.64631C35.1024 3.49339 34.1646 2.5556 33.012 2.5556H7.00558C5.85295 2.5556 4.91517 3.49339 4.91517 4.64631V7.47461L0.897184 12.1739C0.836207 12.2451 0.800619 12.3366 0.795507 12.4391C0.788148 12.5667 0.792325 13.1754 0.791201 13.4744C0.791201 15.1938 2.01334 16.6328 3.63444 16.9689V36.5621H1.40644C1.16287 36.5621 0.96526 36.7597 0.96526 37.0033C0.96526 37.2468 1.16287 37.4445 1.40644 37.4445H36.9392C37.1828 37.4445 37.3804 37.2468 37.3804 37.0033C37.3804 36.7597 37.1828 36.5621 36.9392 36.5621H36.3636V18.4736C36.3636 18.23 36.166 18.0324 35.9225 18.0324C35.6789 18.0324 35.4813 18.23 35.4813 18.4736V36.5618H15.6444V27.0481C15.6444 24.3918 13.4834 22.231 10.8271 22.231C8.17086 22.231 6.00978 24.3918 6.00978 27.0481V36.5618H4.51679V17.0356C5.79652 16.9797 6.90391 16.2505 7.48784 15.1905C8.0956 16.2938 9.26949 17.0435 10.6157 17.0435C11.9619 17.0435 13.1358 16.2938 13.7436 15.1905C14.3513 16.2938 15.5252 17.0435 16.8714 17.0435C18.2175 17.0435 19.3913 16.2938 19.999 15.1905C20.6068 16.2938 21.7807 17.0435 23.1269 17.0435C24.4731 17.0435 25.647 16.2938 26.2548 15.1905C26.8625 16.2938 28.0364 17.0435 29.3826 17.0435C30.7287 17.0435 31.9025 16.2938 32.5102 15.1905C33.118 16.2938 34.2919 17.0435 35.6381 17.0435C37.6062 17.0435 39.2071 15.4425 39.2071 13.4744V12.4605C39.2072 12.3758 39.1716 12.2561 39.1012 12.1739ZM10.4462 8.16136H14.5102C14.4908 8.2292 13.3374 12.2766 13.4107 12.0194H8.24725C8.29009 11.9442 10.5599 7.96203 10.4462 8.16136ZM15.4276 8.16136H19.5579V12.0194H14.3281C14.3474 11.9515 15.5009 7.90412 15.4276 8.16136ZM20.4402 8.16136H24.5708C24.5898 8.22819 25.7436 12.2766 25.6703 12.0194H20.4402V8.16136ZM26.5877 12.0194C26.5686 11.9525 25.4149 7.90412 25.4882 8.16136H29.5518C29.5859 8.22104 31.8963 12.274 31.7511 12.0194H26.5877ZM32.7667 12.0194C32.7327 11.9597 30.4223 7.90671 30.5675 8.16136C30.6623 8.16136 34.6187 8.16136 34.5093 8.16136L37.8084 12.0194H32.7667ZM5.79752 4.64631C5.79752 3.97995 6.33951 3.43796 7.00558 3.43796H33.012C33.6781 3.43796 34.2201 3.97995 34.2201 4.64631V7.27901C18.5866 7.27901 21.9 7.27901 5.79752 7.27901V4.64631ZM5.48875 8.16136H9.43062C9.38778 8.23651 7.11802 12.2187 7.23163 12.0194H2.18998L5.48875 8.16136ZM6.89213 27.0481C6.89213 24.8784 8.65741 23.1134 10.8271 23.1134C12.9968 23.1134 14.7621 24.8784 14.7621 27.0481V36.5618H6.89213V27.0481ZM4.36025 16.1611C2.87875 16.1611 1.67355 14.9559 1.67355 13.4744V12.9017H7.04666V13.4744C7.04666 14.9559 5.84147 16.1611 4.36025 16.1611ZM10.6157 16.1611C9.13421 16.1611 7.92901 14.9559 7.92901 13.4744V12.9017H13.3024V13.4744C13.3024 14.9559 12.0972 16.1611 10.6157 16.1611ZM16.8715 16.1611C15.39 16.1611 14.1848 14.9559 14.1848 13.4744V12.9017H19.5579V13.4744C19.5579 14.9559 18.3527 16.1611 16.8715 16.1611ZM23.1269 16.1611C21.6454 16.1611 20.4402 14.9559 20.4402 13.4744V12.9017H25.8136V13.4744C25.8136 14.9559 24.6084 16.1611 23.1269 16.1611ZM29.3827 16.1611C27.9014 16.1611 26.696 14.9559 26.696 13.4744V12.9017H32.0691V13.4744C32.0691 14.9559 30.8639 16.1611 29.3827 16.1611ZM38.3248 13.4744C38.3248 14.9559 37.1196 16.1611 35.6381 16.1611C34.1566 16.1611 32.9514 14.9559 32.9514 13.4744V12.9017H38.3248V13.4744Z" fill="#111111"/>
<path d="M19.3231 22.4462C18.5364 22.4462 17.8965 23.0861 17.8965 23.8728V32.9092C17.8965 33.6959 18.5364 34.3358 19.3231 34.3358H32.5619C33.3483 34.3358 33.9882 33.6959 33.9882 32.9092V23.8728C33.9882 23.0861 33.3483 22.4462 32.5619 22.4462H19.3231ZM33.1059 23.8728V32.9092C33.1059 33.2093 32.8617 33.4535 32.5619 33.4535H19.3231C19.023 33.4535 18.7788 33.2093 18.7788 32.9092V23.8728C18.7788 23.5727 19.023 23.3285 19.3231 23.3285H32.5619C32.8617 23.3285 33.1059 23.5727 33.1059 23.8728Z" fill="#111111"/>
<path d="M12.8201 30.0688C12.5765 30.0688 12.3789 30.2665 12.3789 30.51V31.3473C12.3789 31.5908 12.5765 31.7885 12.8201 31.7885C13.0636 31.7885 13.2613 31.5908 13.2613 31.3473V30.51C13.2613 30.2665 13.0636 30.0688 12.8201 30.0688Z" fill="#111111"/>
</svg>
