<svg width="180" height="88" viewBox="0 0 180 88" fill="none" xmlns="http://www.w3.org/2000/svg">
<path d="M57.2901 77.0992C53.5343 78.6707 52.1078 82.5233 54.5626 84.7225C59.613 89.2482 80.4047 87.0126 81.383 83.9449C82.3467 80.9226 65.1271 73.8189 57.2901 77.0992Z" stroke="#F2F2F2" stroke-miterlimit="10"/>
<path d="M66.5963 67.0331C75.1752 64.0299 89.58 85.412 83.6341 90.46C79.9783 93.564 71.1285 93.1761 63.9115 92.156C57.1364 91.1985 47.4556 87.2833 45.0672 80.7809C43.8026 77.329 44.5617 72.4109 47.2401 70.6885C49.313 69.3559 52.1114 69.9555 52.7288 69.7338C55.6717 70.9538 56.1036 71.428 58.4483 71.7141C61.5131 72.0884 64.237 67.8589 66.5963 67.0331Z" stroke="#F2F2F2" stroke-miterlimit="10"/>
<path d="M75.3006 56.5165C85.2642 58.1062 96.0914 89.3372 85.2833 96.5245C78.4 101.102 66.3999 99.0808 58.0356 96.6608C50.3522 94.4379 37.5584 87.0199 34.97 76.3888C33.4654 70.2116 35.2937 61.5218 40.5323 59.0083C44.7081 57.0052 50.0886 58.7276 51.0359 58.8602C56.6355 61.8707 57.0882 63.4022 61.2577 64.4333C66.7781 65.7968 71.1367 55.8488 75.3006 56.5165Z" stroke="#F2F2F2" stroke-miterlimit="10"/>
<path d="M83.374 46.0699C94.3749 49.0004 101.972 93.3069 86.3015 102.658C76.188 108.693 61.034 105.073 51.5287 101.235C42.9298 97.7636 27.0767 86.8409 24.2419 72.0657C22.5317 63.1552 25.3856 50.7127 33.1926 47.397C39.4659 44.7318 47.4774 47.467 48.7103 48.0556C57.3292 52.1734 57.4383 55.4455 63.4388 57.2214C71.4094 59.5869 77.6127 44.5383 83.374 46.0699Z" stroke="#F2F2F2" stroke-miterlimit="10"/>
<path d="M90.9619 36.0983C103.145 40.326 107.347 97.7073 86.8343 109.268C73.4769 116.728 55.1753 111.55 44.5372 106.285C35.0128 101.573 16.1203 87.147 13.0246 68.2177C11.1217 56.5819 14.9884 40.3823 25.3647 36.2591C33.739 32.9343 44.3181 36.8341 45.8973 37.7234C57.0073 43.9805 57.2946 47.9775 65.1243 50.4856C75.547 53.8531 83.6695 33.5684 90.9619 36.0983Z" stroke="#F2F2F2" stroke-miterlimit="10"/>
<path d="M17.1958 25.2537C27.6676 21.2704 40.8078 26.3293 42.7434 27.5248C56.3145 35.9075 56.8164 40.6122 66.4726 43.8761C79.3492 48.2282 89.4391 22.6557 98.2025 26.253C111.664 31.7788 112.419 102.308 87.0198 116.003C70.4466 124.939 48.9621 118.159 37.1975 111.461C26.7494 105.514 4.83118 87.584 1.46727 64.4969C-0.623815 50.1368 4.24841 30.1782 17.1958 25.2537Z" stroke="#F2F2F2" stroke-miterlimit="10"/>
<path d="M130.511 17.9865C126.386 17.952 121.439 10.8037 125.138 9.6101C127.275 8.91972 132.932 10.0116 135.154 11.9547C138.283 14.689 133.349 18.011 130.511 17.9865Z" stroke="#F2F2F2" stroke-miterlimit="10"/>
<path d="M119.301 10.6112C119.704 9.65188 121.594 9.22584 123.319 8.05763C126.818 5.68669 127.319 4.56027 129.804 3.13044C130.773 2.57177 132.077 1.83778 133.35 2.17389C135.299 2.68896 135.786 4.91819 138.259 8.84431C141.467 13.9459 142.682 15.2649 141.765 17.9683C141.552 18.597 141.275 20.6327 139.731 21.8745C137.591 23.5914 135.084 22.2651 131.949 23.4015C128.184 24.7641 126.318 27.1896 124.684 26.1176C123.533 25.3628 123.49 23.2952 122.628 19.6952C121.972 16.9527 121.559 15.1532 120.761 13.6852C119.803 11.9374 118.852 11.6776 119.301 10.6112Z" stroke="#F2F2F2" stroke-miterlimit="10"/>
<path d="M112.996 12.6106C113.066 10.91 115.739 10.087 117.941 7.62978C122.459 2.58904 120.366 -1.0128 123.987 -4.69547C125.524 -6.25884 127.935 -7.77315 130.352 -7.47973C133.781 -7.06277 134.933 -3.52272 140.212 3.65459C147.115 13.0384 150.055 14.8761 149.41 19.8769C149.279 20.8961 149.15 24.8095 146.453 27.165C142.855 30.3063 138.543 27.4485 132.911 29.8094C126.618 32.4438 124.266 38.0759 122.144 36.9104C120.67 36.101 121.234 32.8417 120.102 26.4846C119.3 21.9662 118.804 19.3255 117.201 17.1626C115.178 14.4346 112.92 14.4573 112.996 12.6106Z" stroke="#F2F2F2" stroke-miterlimit="10"/>
<path d="M106.684 14.5882C106.411 12.1509 109.873 10.9255 112.557 7.1792C118.085 -0.533162 113.319 -6.56134 118.164 -12.5441C120.238 -15.104 123.795 -17.3941 127.347 -17.1552C132.27 -16.8245 134.089 -12.0009 142.166 -1.55693C152.785 12.0891 157.358 14.4919 157.058 21.7637C156.999 23.1817 157.026 28.9628 153.178 32.4365C148.121 36.9994 141.995 32.6046 133.876 36.1973C125.048 40.1034 122.219 48.9395 119.602 47.6841C117.807 46.8157 118.957 42.3681 117.574 33.2541C116.62 26.9597 116.044 23.4905 113.64 20.62C110.542 16.9209 106.976 17.2134 106.684 14.5882Z" stroke="#F2F2F2" stroke-miterlimit="10"/>
<path d="M100.358 16.5603C99.7463 13.3891 103.986 11.7567 107.159 6.72409C113.685 -3.66443 106.236 -12.0953 112.327 -20.3973C114.931 -23.9491 119.642 -27.0159 124.328 -26.836C130.749 -26.589 133.206 -20.4654 144.102 -6.773C158.404 11.1589 164.628 14.1203 164.683 23.6459C164.694 25.4627 164.874 33.106 159.879 37.7025C153.357 43.6817 145.429 37.7525 134.818 42.5807C123.454 47.7531 120.147 59.8013 117.047 58.4532C114.928 57.5285 116.665 51.8891 115.032 40.019C113.922 31.9478 113.27 27.6547 110.065 24.0728C105.889 19.4073 101.016 19.9705 100.358 16.5603Z" stroke="#F2F2F2" stroke-miterlimit="10"/>
<path d="M94.0204 18.5315C95.045 22.7284 101.222 21.8926 106.476 27.5248C110.483 31.8188 111.211 36.934 112.476 46.7829C114.356 61.4083 112.035 68.2404 114.477 69.2206C118.065 70.6622 121.848 55.401 135.751 48.9631C148.849 42.8986 158.595 50.3748 166.572 42.9676C172.721 37.2565 172.38 27.7509 172.3 25.5263C171.876 13.7497 164.011 10.2269 146.025 -11.9909C132.31 -28.9317 129.217 -36.3534 121.295 -36.5178C115.477 -36.6386 109.608 -32.7934 106.476 -28.2513C99.1417 -17.623 109.288 -6.78481 101.748 6.26807C98.0943 12.5933 93.0667 14.6272 94.0204 18.5315Z" stroke="#F2F2F2" stroke-miterlimit="10"/>
<path d="M146.438 86.0806C145.362 85.5355 143.102 86.5856 142.902 88.2217C142.675 90.0776 145.233 91.6128 146.357 91.1358C147.686 90.5708 147.867 86.8018 146.438 86.0806Z" stroke="#F2F2F2" stroke-miterlimit="10"/>
<path d="M149.471 95.9413C151.306 94.2271 152.108 91.0813 153.025 85.689C153.934 80.3422 153.792 76.5141 152.993 76.2362C152.557 76.0863 151.323 77.259 150.265 78.1184C148.284 79.7226 144.893 79.5446 144.024 79.7181C140.842 80.354 139.907 81.5349 138.577 83.7968C137.961 84.8415 136.526 87.1579 135.894 89.8832C134.93 94.01 130.611 95.2818 131.137 96.936C131.58 98.3168 135.859 98.652 138.634 98.6911C142.611 98.7474 146.635 98.5884 149.471 95.9413Z" stroke="#F2F2F2" stroke-miterlimit="10"/>
<path d="M152.652 100.55C155.667 97.4865 156.854 92.3458 158.681 82.7322C160.538 73.0722 160.526 66.4463 159.611 66.1992C158.925 66.0103 156.702 68.3984 154.813 70.1053C151.251 73.3365 144.876 72.8051 143.563 73.0122C137.571 73.937 136.095 76.1526 133.773 80.3403C132.805 82.0845 130.152 86.3358 128.942 91.3566C127.081 99.0481 118.258 101.062 118.988 103.913C119.598 106.288 127.78 106.652 132.929 106.457C140.199 106.174 147.556 105.728 152.652 100.55Z" stroke="#F2F2F2" stroke-miterlimit="10"/>
<path d="M155.815 105.128C160.014 100.717 161.571 93.5776 164.319 79.7454C167.109 65.7695 167.239 56.3612 166.212 56.1268C165.271 55.9088 162.061 59.5061 159.346 62.0651C154.214 66.9314 144.846 66.0366 143.087 66.271C134.288 67.4446 132.262 70.7267 128.954 76.8494C127.634 79.2921 123.764 85.4792 121.975 92.7928C119.22 104.05 105.891 106.804 106.823 110.854C107.601 114.222 119.689 114.63 127.209 114.184C137.77 113.589 148.471 112.842 155.815 105.128Z" stroke="#F2F2F2" stroke-miterlimit="10"/>
<path d="M158.968 109.704C164.353 103.944 166.28 94.8058 169.948 76.7549C173.675 58.465 173.948 46.277 172.804 46.0508C171.608 45.8119 167.408 50.6037 163.87 54.0166C157.156 60.5071 144.808 59.2581 142.603 59.5261C130.997 60.9332 128.405 65.2899 124.126 73.3538C122.448 76.4933 117.367 84.618 115.001 94.2253C111.348 109.047 93.5149 112.542 94.6513 117.79C95.5959 122.151 111.588 122.586 121.482 121.908C135.329 120.975 149.38 119.957 158.968 109.704Z" stroke="#F2F2F2" stroke-miterlimit="10"/>
<path d="M142.115 52.7784C127.702 54.4136 124.568 59.864 119.295 69.8565C117.268 73.6981 110.965 83.7551 108.022 95.6552C103.476 114.043 81.1348 118.279 82.474 124.724C83.5868 130.084 103.483 130.538 115.749 129.63C132.889 128.358 150.288 127.07 162.117 114.277C168.689 107.169 170.984 96.034 175.573 73.7626C180.23 51.1578 180.646 36.1928 179.391 35.9729C177.936 35.7186 172.754 41.6959 168.39 45.9654C160.095 54.0793 144.766 52.4777 142.115 52.7784Z" stroke="#F2F2F2" stroke-miterlimit="10"/>
<path d="M24.9238 9.08412C26.5603 15.3521 38.3067 12.408 52.2897 26.5255C57.3001 31.5844 60.6594 36.8759 67.2909 37.6989C67.96 37.7816 74.6033 38.5074 79.2919 34.247C85.1906 28.8874 81.5903 21.4521 88.4745 11.0826C91.0101 7.26277 91.432 8.37194 93.293 5.35966C101.236 -7.49882 89.1218 -20.5526 96.1115 -33.6109C99.329 -39.6218 104.112 -41.0017 103.658 -41.7866C101.696 -45.154 20.5016 -7.80586 24.9238 9.08412Z" stroke="#F2F2F2" stroke-miterlimit="10"/>
<path d="M69.1092 29.1299C69.5111 29.0754 73.8914 29.4024 76.8962 26.3902C80.6956 22.5867 77.9872 17.3497 82.3403 10.2796C83.9423 7.6761 84.165 8.38193 85.3051 6.32258C90.1691 -2.46534 81.4393 -11.3059 85.7142 -19.9085C87.6926 -23.891 90.8156 -24.8039 90.351 -25.1927C88.2499 -26.9659 34.6573 -0.770256 38.8667 10.6284C40.445 14.9034 49.0612 13.3863 58.9202 22.5939C62.505 25.9396 64.9325 29.6958 69.1092 29.1299Z" stroke="#F2F2F2" stroke-miterlimit="10"/>
<path d="M70.9276 20.56C71.0421 20.2721 73.1841 20.2784 74.5006 18.5334C76.2098 16.2696 74.3897 13.2537 76.2062 9.47747C76.8726 8.09124 76.8999 8.38738 77.3181 7.28549C79.1137 2.54634 73.7496 -2.05383 75.3179 -6.20706C76.0516 -8.16195 77.4154 -8.49533 77.0517 -8.5998C74.3933 -8.22281 48.8675 6.29078 52.8051 12.1727C54.3425 14.471 59.8457 14.3611 65.5462 18.6624C67.7127 20.2975 69.131 21.4948 70.9276 20.56Z" stroke="#F2F2F2" stroke-miterlimit="10"/>
<path d="M72.7459 11.991C71.3349 7.87141 65.7799 6.47064 63.7451 7.99404C60.7449 10.2433 63.3042 13.172 66.7454 13.717C69.3174 14.1212 74.3606 16.7057 72.7459 11.991Z" stroke="#F2F2F2" stroke-miterlimit="10"/>
</svg>
